<svg width="100" height="62" viewBox="0 0 100 62" fill="none" xmlns="http://www.w3.org/2000/svg">
<line x1="6" y1="30.5" x2="94" y2="30.5" stroke="black"/>
<path d="M13.1426 5.01375L20.4844 22.5821L27.8535 5.01375H30.0957V24.92H28.4141V16.252L28.5508 7.36531L21.1406 24.92H19.8418L12.459 7.43367L12.5957 16.1973V24.92H10.9141V5.01375H13.1426ZM37.1914 24.92H35.5098V5.01375H37.1914V24.92ZM42.6055 24.92V5.01375H48.1699C49.8014 5.01375 51.2643 5.38745 52.5586 6.13484C53.8529 6.87312 54.86 7.93497 55.5801 9.32039C56.3092 10.7058 56.6738 12.2826 56.6738 14.0509V15.8829C56.6738 17.6602 56.3138 19.2371 55.5938 20.6134C54.8737 21.9897 53.8574 23.0515 52.5449 23.7989C51.2415 24.5463 49.7422 24.92 48.0469 24.92H42.6055ZM44.2871 6.4493V23.4981H48.0605C50.1569 23.4981 51.8385 22.8054 53.1055 21.42C54.3724 20.0255 55.0059 18.1433 55.0059 15.7735V14.0235C55.0059 11.7358 54.3815 9.90372 53.1328 8.52742C51.8841 7.15112 50.2389 6.45841 48.1973 6.4493H44.2871ZM65.4375 15.0352L62.6348 17.797V24.92H60.9531V5.01375H62.6348V15.7462L72.834 5.01375H74.9531L66.6133 13.8731L75.5957 24.92H73.5449L65.4375 15.0352ZM89.3633 19.3419H80.3262L78.2754 24.92H76.5117L84.0449 5.01375H85.6445L93.1777 24.92H91.4277L89.3633 19.3419ZM80.8457 17.9063H88.8301L84.8379 7.06453L80.8457 17.9063Z" fill="#00B6FF"/>
<path d="M22.8477 54.1556C22.8477 53.8366 22.9479 53.5677 23.1484 53.349C23.3581 53.1211 23.6452 53.0072 24.0098 53.0072C24.3743 53.0072 24.6615 53.1211 24.8711 53.349C25.0807 53.5677 25.1855 53.8366 25.1855 54.1556C25.1855 54.4746 25.0807 54.739 24.8711 54.9486C24.6615 55.1491 24.3743 55.2494 24.0098 55.2494C23.6452 55.2494 23.3581 55.1491 23.1484 54.9486C22.9479 54.739 22.8477 54.4746 22.8477 54.1556ZM30.0801 55.14V35.2337H35.6445C37.276 35.2337 38.7389 35.6074 40.0332 36.3548C41.3275 37.0931 42.3346 38.155 43.0547 39.5404C43.7839 40.9258 44.1484 42.5026 44.1484 44.2709V46.1029C44.1484 47.8802 43.7884 49.4571 43.0684 50.8334C42.3483 52.2097 41.332 53.2715 40.0195 54.0189C38.7161 54.7663 37.2168 55.14 35.5215 55.14H30.0801ZM31.7617 36.6693V53.7181H35.5352C37.6315 53.7181 39.3132 53.0254 40.5801 51.64C41.847 50.2455 42.4805 48.3633 42.4805 45.9935V44.2435C42.4805 41.9558 41.8561 40.1237 40.6074 38.7474C39.3587 37.3711 37.7135 36.6784 35.6719 36.6693H31.7617ZM59.4199 45.597H50.1094V53.7181H60.8145V55.14H48.4277V35.2337H60.7461V36.6693H50.1094V44.1752H59.4199V45.597ZM70.3711 52.6791L70.4805 53.1029L70.6035 52.6791L76.8652 35.2337H78.7109L71.3008 55.14H69.6875L62.2773 35.2337H64.1094L70.3711 52.6791Z" fill="#EB5757"/>
</svg>
